<svg width="26" height="26" viewBox="0 0 26 26" fill="none" xmlns="http://www.w3.org/2000/svg">
<path d="M6.42014 15.4651L5.59739 18.5365L2.59026 18.6001C1.69158 16.9333 1.18182 15.0262 1.18182 12.9995C1.18182 11.0398 1.65843 9.19171 2.50324 7.56445H2.50389L5.18108 8.05528L6.35385 10.7164C6.10839 11.432 5.9746 12.2002 5.9746 12.9995C5.9747 13.8671 6.13184 14.6982 6.42014 15.4651Z" fill="#FBBB00"/>
<path d="M24.6117 10.793C24.7474 11.5079 24.8182 12.2462 24.8182 13.0008C24.8182 13.8469 24.7292 14.6722 24.5598 15.4683C23.9845 18.1774 22.4812 20.543 20.3987 22.217L20.3981 22.2163L17.026 22.0443L16.5488 19.065C17.9306 18.2547 19.0105 16.9865 19.5793 15.4683H13.2598V10.793H19.6715H24.6117Z" fill="#518EF8"/>
<path d="M20.3981 22.2148L20.3987 22.2155C18.3734 23.8434 15.8007 24.8174 13 24.8174C8.49938 24.8174 4.5864 22.3018 2.59029 18.5999L6.42016 15.4648C7.4182 18.1285 9.98768 20.0246 13 20.0246C14.2948 20.0246 15.5078 19.6746 16.5487 19.0635L20.3981 22.2148Z" fill="#28B446"/>
<path d="M20.5436 3.90241L16.715 7.03681C15.6377 6.36345 14.3643 5.97447 13.0001 5.97447C9.91953 5.97447 7.30199 7.95757 6.35395 10.7167L2.50394 7.56475H2.5033C4.47019 3.77255 8.43252 1.18164 13.0001 1.18164C15.8676 1.18164 18.4968 2.20308 20.5436 3.90241Z" fill="#F14336"/>
</svg>
